<svg width="184" height="118" viewBox="0 0 184 118" fill="none" xmlns="http://www.w3.org/2000/svg">
<g id="Empty / Image" clip-path="url(#clip0_5240_202104)">
<g id="Group">
<path id="Vector" d="M92 117.273C142.81 117.273 184 108.33 184 97.2979C184 86.2657 142.81 77.3223 92 77.3223C41.1898 77.3223 0 86.2657 0 97.2979C0 108.33 41.1898 117.273 92 117.273Z" fill="#F5F5F5"/>
<g id="Group_2">
<path id="Vector_2" d="M158.125 39.5396L128.955 6.71686C127.555 4.47959 125.511 3.12695 123.358 3.12695H60.6424C58.489 3.12695 56.4449 4.47959 55.0448 6.714L25.875 39.5425V65.9074H158.125V39.5396Z" fill="white" stroke="#D9D9D9"/>
<path id="Vector_3" d="M119.637 48.5887C119.637 44.0086 122.495 40.2275 126.04 40.2246H158.125V91.9814C158.125 98.0397 154.33 103.005 149.644 103.005H34.3562C29.67 103.005 25.875 98.0369 25.875 91.9814V40.2246H57.96C61.5049 40.2246 64.3626 44 64.3626 48.5801V48.6429C64.3626 53.223 67.252 56.9214 70.794 56.9214H113.206C116.748 56.9214 119.637 53.1888 119.637 48.6087V48.5887Z" fill="#FAFAFA" stroke="#D9D9D9"/>
</g>
</g>
</g>
<defs>
<clipPath id="clip0_5240_202104">
<rect width="184" height="117" fill="white" transform="translate(0 0.273438)"/>
</clipPath>
</defs>
</svg>
