<svg width="640" height="420" viewBox="0 0 640 420" fill="none" xmlns="http://www.w3.org/2000/svg">
<path d="M116.672 332.199C115.707 329.238 114.742 326.172 113.839 323.064L116.106 322.392C117.008 325.458 117.974 328.524 118.918 331.464L116.672 332.199ZM521.587 328.377L519.236 328.083C519.635 324.933 519.992 321.741 520.328 318.633L522.678 318.885C522.342 322.014 521.964 325.206 521.566 328.356L521.587 328.377ZM111.216 313.887C110.398 310.821 109.579 307.713 108.824 304.626L111.111 304.059C111.867 307.125 112.664 310.212 113.483 313.257L111.195 313.866L111.216 313.887ZM523.643 309.414L521.293 309.183C521.587 306.012 521.859 302.82 522.111 299.712L524.462 299.901C524.21 303.03 523.937 306.222 523.643 309.414ZM106.662 295.323C105.97 292.215 105.34 289.065 104.732 285.957L107.04 285.516C107.628 288.603 108.278 291.732 108.95 294.819L106.641 295.323H106.662ZM525.133 290.388L522.783 290.241C522.993 287.07 523.161 283.878 523.307 280.749L525.658 280.854C525.511 284.004 525.343 287.196 525.133 290.388ZM103.032 276.57C102.507 273.42 102.025 270.249 101.584 267.12L103.913 266.784C104.354 269.871 104.837 273.042 105.34 276.171L103.011 276.57H103.032ZM526.015 271.32L523.664 271.257C523.748 268.086 523.811 264.873 523.853 261.765H526.224C526.182 264.936 526.12 268.149 526.036 271.341L526.015 271.32ZM100.409 257.628C100.052 254.436 99.7582 251.244 99.5064 248.115L101.857 247.926C102.109 251.034 102.402 254.205 102.759 257.376L100.409 257.628ZM523.853 252.252C523.832 249.06 523.769 245.868 523.664 242.76L526.015 242.697C526.099 245.826 526.161 249.039 526.203 252.252H523.832H523.853ZM98.8768 238.56C98.7299 235.347 98.625 232.134 98.562 229.005L100.933 228.963C100.975 232.071 101.08 235.263 101.248 238.434L98.8978 238.56H98.8768ZM523.307 233.247C523.14 230.076 522.951 226.884 522.72 223.776L525.07 223.608C525.301 226.737 525.511 229.95 525.658 233.142L523.307 233.268V233.247ZM100.954 219.471L98.583 219.429C98.646 216.216 98.7719 213.003 98.9607 209.874L101.311 210.021C101.122 213.129 100.996 216.3 100.933 219.492L100.954 219.471ZM521.88 214.305C521.566 211.134 521.209 207.963 520.81 204.876L523.161 204.582C523.559 207.69 523.916 210.882 524.231 214.074L521.88 214.305ZM102.067 200.55L99.7162 200.319C100.031 197.127 100.43 193.914 100.87 190.806L103.2 191.142C102.759 194.208 102.36 197.379 102.046 200.55H102.067ZM519.488 195.468C519.005 192.318 518.46 189.168 517.893 186.123L520.223 185.682C520.81 188.748 521.335 191.919 521.838 195.111L519.509 195.468H519.488ZM240.214 195.132C236.94 194.607 234.569 193.116 231.274 190.533L232.764 188.706C235.639 190.974 237.717 192.318 240.466 192.78L240.214 195.132ZM248.398 189.504L246.3 188.433C247.391 186.312 248.335 183.372 249.133 179.676L251.441 180.18C250.581 184.107 249.594 187.173 248.398 189.504ZM224.328 183.75C222.439 181.65 220.445 179.235 218.179 176.358L220.026 174.888C222.25 177.723 224.223 180.096 226.07 182.154L224.307 183.729L224.328 183.75ZM104.774 181.818L102.465 181.377C103.074 178.227 103.766 175.077 104.522 172.011L106.809 172.578C106.075 175.602 105.382 178.71 104.774 181.818ZM515.963 176.841C515.27 173.712 514.515 170.625 513.717 167.643L516.005 167.034C516.802 170.058 517.557 173.166 518.271 176.337L515.963 176.862V176.841ZM253.015 170.667L250.665 170.373C251.021 167.559 251.357 164.451 251.651 160.923L254.001 161.133C253.686 164.703 253.372 167.832 252.994 170.688L253.015 170.667ZM212.387 168.735C210.477 166.131 208.484 163.401 206.763 161.028L208.673 159.642C210.393 162.015 212.366 164.745 214.276 167.328L212.387 168.735ZM385.265 168.546C383.418 168.546 381.614 168 379.893 166.908L381.152 164.913C383.733 166.551 386.273 166.551 389.022 165.249L390.029 167.391C388.413 168.168 386.797 168.567 385.244 168.567L385.265 168.546ZM109.307 163.443L107.04 162.75C107.984 159.684 109.013 156.618 110.104 153.657L112.328 154.476C111.258 157.395 110.23 160.398 109.307 163.443ZM397.773 161.196L396.031 159.6C397.814 157.647 399.745 155.253 401.907 152.271L403.816 153.657C401.613 156.723 399.619 159.18 397.773 161.196ZM373.199 159.579C371.667 157.227 370.156 154.434 368.561 151.074L370.701 150.066C372.233 153.321 373.702 156.03 375.171 158.298L373.199 159.579ZM511.115 158.529C510.171 155.463 509.142 152.439 508.093 149.562L510.317 148.743C511.388 151.662 512.416 154.728 513.381 157.815L511.136 158.508L511.115 158.529ZM201.181 153.321C199.019 150.36 197.215 147.924 195.515 145.677L197.403 144.249C199.124 146.517 200.929 148.953 203.091 151.914L201.181 153.321ZM254.736 151.557L252.385 151.41C252.574 148.638 252.742 145.53 252.952 141.876L255.302 142.002C255.113 145.656 254.925 148.764 254.736 151.557ZM115.875 145.74L113.714 144.795C115.015 141.855 116.4 138.957 117.869 136.143L119.967 137.235C118.519 140.007 117.155 142.863 115.896 145.761L115.875 145.74ZM409.231 145.74L407.258 144.438C408.937 141.876 410.679 139.167 412.42 136.437L414.414 137.718C412.651 140.469 410.93 143.178 409.231 145.74ZM364.762 142.233C363.692 139.545 362.58 136.605 361.384 133.266L363.608 132.468C364.804 135.786 365.896 138.705 366.966 141.351L364.762 142.233ZM504.609 140.763C503.35 137.802 502.007 134.925 500.622 132.216L502.721 131.145C504.127 133.896 505.491 136.836 506.771 139.839L504.609 140.763ZM189.66 138.18C187.519 135.513 185.526 133.14 183.553 130.935L185.316 129.36C187.309 131.607 189.324 134.001 191.486 136.689L189.639 138.18H189.66ZM255.764 132.468L253.414 132.342C253.581 129.171 253.728 126.021 253.896 122.808L256.247 122.934C256.079 126.147 255.911 129.318 255.764 132.468ZM419.576 129.717L417.604 128.415C419.576 125.433 421.339 122.829 422.997 120.498L424.928 121.863C423.291 124.173 421.528 126.735 419.576 129.696V129.717ZM124.626 129.045L122.632 127.764C124.479 124.845 126.41 122.22 128.319 119.952L130.124 121.485C128.277 123.69 126.431 126.231 124.626 129.045ZM358.236 124.236C357.145 121.065 356.095 117.873 355.193 115.185L357.439 114.429C358.341 117.117 359.39 120.288 360.481 123.459L358.257 124.215L358.236 124.236ZM177.09 124.068C174.676 121.716 172.305 119.637 170.038 117.894L171.486 116.025C173.816 117.831 176.271 119.973 178.747 122.388L177.111 124.089L177.09 124.068ZM496.047 123.963C494.348 121.191 492.585 118.587 490.78 116.193L492.669 114.765C494.515 117.222 496.341 119.91 498.062 122.724L496.047 123.963ZM136.756 115.038L135.329 113.148C138.141 110.985 141.079 109.431 144.058 108.528L144.751 110.796C142.044 111.615 139.358 113.043 136.777 115.038H136.756ZM430.636 114.324L428.81 112.833C431.034 110.103 433.133 107.73 435.232 105.63L436.91 107.31C434.875 109.368 432.818 111.657 430.657 114.324H430.636ZM256.792 113.4L254.442 113.253C254.652 109.809 254.841 106.701 255.071 103.698L257.422 103.866C257.212 106.848 257.002 109.956 256.813 113.379L256.792 113.4ZM162.211 112.896C159.273 111.426 156.356 110.481 153.607 110.103L153.922 107.751C156.944 108.171 160.091 109.179 163.26 110.754L162.211 112.875V112.896ZM484.673 109.074C482.407 106.743 480.056 104.685 477.685 102.942L479.07 101.031C481.546 102.837 484.002 104.979 486.373 107.415L484.673 109.074ZM352.171 106.134C350.996 102.606 350.031 99.7502 349.128 97.1042L351.353 96.3272C352.255 98.9733 353.22 101.85 354.396 105.378L352.15 106.134H352.171ZM443.941 101.283L442.597 99.3512C445.493 97.3142 448.431 95.8022 451.306 94.8782L452.041 97.1252C449.376 97.9862 446.669 99.3932 443.941 101.304V101.283ZM469.711 98.3852C466.794 97.1462 463.835 96.3903 460.918 96.1172L461.128 93.7653C464.275 94.0592 467.486 94.8783 470.634 96.2223L469.711 98.4062V98.3852ZM258.177 94.3952L255.827 94.1852C256.121 90.8672 256.436 87.6542 256.771 84.6512L259.122 84.9242C258.786 87.9062 258.471 91.0983 258.177 94.3952ZM346.001 88.1162C344.868 84.9242 343.777 82.0052 342.707 79.1912L344.91 78.3512C345.98 81.1862 347.072 84.1052 348.205 87.3182L345.98 88.1162H346.001ZM260.339 75.4952L258.009 75.1592C258.492 71.8412 259.017 68.6702 259.562 65.6882L261.892 66.1292C261.346 69.0692 260.821 72.2192 260.339 75.4952ZM339.223 70.3712C337.964 67.3052 336.684 64.3862 335.425 61.6772L337.565 60.6902C338.824 63.4202 340.126 66.3812 341.406 69.4682L339.223 70.3712ZM263.906 56.8682L261.619 56.3012C262.437 53.0042 263.361 49.8962 264.326 47.0612L266.551 47.8172C265.606 50.5892 264.725 53.6342 263.906 56.8682ZM331.228 53.1932C329.675 50.2532 328.08 47.5022 326.506 45.0242L328.5 43.7642C330.115 46.3052 331.731 49.1192 333.305 52.1012L331.228 53.2142V53.1932ZM270.076 39.1442L267.957 38.0942C269.509 34.9442 271.23 32.1722 273.077 29.8202L274.924 31.2902C273.182 33.4952 271.545 36.1412 270.076 39.1442ZM321.092 37.3382C319.035 34.7552 316.895 32.4452 314.754 30.5132L316.328 28.7492C318.552 30.7652 320.777 33.1592 322.917 35.8472L321.071 37.3172L321.092 37.3382ZM281.513 25.1582L280.233 23.1632C283.024 21.3782 286.109 20.2022 289.404 19.6982L289.76 22.0292C286.801 22.4912 284.031 23.5412 281.513 25.1582ZM307.304 25.1582C304.555 23.6672 301.68 22.6592 298.784 22.1342L299.204 19.8032C302.352 20.3702 305.458 21.4622 308.416 23.0792L307.304 25.1582Z" fill="#D7DCDF"/>
<path d="M161.665 345.555C161.665 345.555 110.733 200.088 152.138 165.69C179.796 142.716 202.545 184.422 237.527 157.626C268.691 133.77 258.786 61.1522 308.479 51.1352C364.342 39.8582 376.661 175.266 422.493 156.765C478.126 134.316 533.464 179.907 485.638 345.87L161.665 345.576V345.555Z" fill="#DFE6E8"/>
<path d="M536.57 294.609C516.97 291.564 520.181 319.032 492.249 319.032C464.317 319.032 458.546 214.452 439.953 244.335C344.7 397.614 400.018 179.151 324.26 176.379C290.012 175.119 267.18 213.36 258.765 281.043C246.572 342.237 218.263 234.381 189.135 244.398C170.626 250.782 172.746 319.032 147.206 319.032C121.667 319.032 122.464 291.564 102.885 294.609C81.7946 297.885 75.478 346.5 75.478 346.5H563.977C563.977 346.5 557.682 297.885 536.57 294.609Z" fill="#C8CDCF"/>
<path d="M519.215 324.324C501.188 323.022 504.126 334.761 478.44 334.761C452.754 334.761 455.587 308.469 439.869 302.883C410.909 292.593 387.049 344.652 375.821 318.528C354.5 249.207 292.32 214.431 263.633 318.528C252.406 344.652 226.153 298.032 199.586 302.883C183.238 305.865 184.518 334.761 161.014 334.761C137.511 334.761 138.266 323.043 120.24 324.324C100.828 325.731 95.0361 346.479 95.0361 346.479H544.439C544.439 346.479 538.647 325.731 519.236 324.324H519.215Z" fill="#D7DCDF"/>
<path d="M75.4569 346.479C75.4569 346.479 72.3931 358.974 86.6002 362.103C106.012 366.387 220.026 377.622 192.325 386.148C176.691 390.979 200.299 397.509 276.456 399.924C352.591 402.339 483.246 392.889 439.324 378.924C395.38 364.959 574.89 375.543 563.977 346.479H75.4569Z" fill="#DFE6E8"/>
<path d="M319.811 334.53C388.54 334.53 444.255 278.776 444.255 210C444.255 141.224 388.54 85.4697 319.811 85.4697C251.083 85.4697 195.368 141.224 195.368 210C195.368 278.776 251.083 334.53 319.811 334.53Z" fill="#C72D2D"/>
<path d="M319.812 325.079C383.325 325.079 434.812 273.556 434.812 209.999C434.812 146.443 383.325 94.9194 319.812 94.9194C256.299 94.9194 204.812 146.443 204.812 209.999C204.812 273.556 256.299 325.079 319.812 325.079Z" fill="white"/>
<path d="M319.812 316.89C378.804 316.89 426.627 269.034 426.627 210C426.627 150.966 378.804 103.11 319.812 103.11C260.819 103.11 212.996 150.966 212.996 210C212.996 269.034 260.819 316.89 319.812 316.89Z" fill="#C72D2D"/>
<path d="M374.122 202.839C369.526 200.361 363.797 202.104 361.341 206.703L352.465 223.23C351.017 220.563 349.275 218.064 347.302 215.775V155.295C347.302 150.948 343.777 147.42 339.433 147.42C335.089 147.42 331.563 150.948 331.563 155.295V204.393C330.346 203.889 329.087 203.427 327.828 203.049V142.275C327.828 137.928 324.302 134.4 319.958 134.4C315.614 134.4 312.089 137.928 312.089 142.275V201.306C310.83 201.411 309.57 201.558 308.353 201.768V151.935C308.353 147.588 304.828 144.06 300.484 144.06C296.14 144.06 292.614 147.588 292.614 151.935V207.879C291.313 208.719 290.075 209.622 288.879 210.588V171.78C288.879 167.433 285.353 163.905 281.009 163.905C276.665 163.905 273.14 167.433 273.14 171.78V240.87C273.14 241.332 273.182 241.794 273.266 242.235C273.266 242.613 273.266 242.991 273.266 243.39C273.266 266.7 292.152 285.6 315.446 285.6C338.74 285.6 347.932 274.953 354.332 259.77L378.025 215.628C380.501 211.029 378.759 205.296 374.164 202.839H374.122Z" fill="white"/>
<path d="M402.242 64.2389V83.4749C401.969 85.0499 400.584 86.2469 398.927 86.2469C397.269 86.2469 395.884 85.0499 395.611 83.4749V64.2389C395.611 62.4119 397.101 60.9209 398.927 60.9209C400.752 60.9209 402.242 62.4119 402.242 64.2389Z" fill="#21ABA1"/>
<path d="M398.927 95.6971C400.781 95.6971 402.284 94.1927 402.284 92.3371C402.284 90.4814 400.781 88.9771 398.927 88.9771C397.072 88.9771 395.569 90.4814 395.569 92.3371C395.569 94.1927 397.072 95.6971 398.927 95.6971Z" fill="#21ABA1"/>
<path d="M163.197 180.768C166.219 177.639 168.086 173.397 168.086 168.735C168.086 159.18 160.322 151.41 150.773 151.41C141.225 151.41 141.855 153.279 138.749 156.303C138.686 156.366 138.602 156.429 138.539 156.492C138.476 156.555 138.413 156.639 138.35 156.702C135.328 159.831 133.46 164.073 133.46 168.735C133.46 178.29 141.225 186.06 150.773 186.06C160.322 186.06 159.692 184.191 162.798 181.167C162.861 181.104 162.945 181.041 163.008 180.978C163.071 180.915 163.134 180.831 163.197 180.768ZM162.84 168.735C162.84 171.108 162.148 173.334 160.951 175.203L144.31 158.55C146.178 157.353 148.402 156.66 150.773 156.66C157.426 156.66 162.84 162.078 162.84 168.735ZM138.707 168.735C138.707 166.362 139.399 164.136 140.596 162.267L157.237 178.92C155.369 180.117 153.145 180.81 150.773 180.81C144.121 180.81 138.707 175.392 138.707 168.735Z" fill="#21ABA1"/>
<path d="M485.953 168.798C488.975 165.669 490.843 161.427 490.843 156.765C490.843 147.21 483.078 139.44 473.53 139.44C463.981 139.44 464.611 141.309 461.505 144.333C461.442 144.396 461.358 144.459 461.295 144.522C461.232 144.585 461.169 144.669 461.106 144.732C458.085 147.861 456.217 152.103 456.217 156.765C456.217 166.32 463.981 174.09 473.53 174.09C483.078 174.09 482.449 172.221 485.554 169.197C485.617 169.134 485.701 169.071 485.764 169.008C485.827 168.945 485.89 168.861 485.953 168.798ZM485.596 156.765C485.596 159.138 484.904 161.364 483.708 163.233L467.066 146.58C468.934 145.383 471.158 144.69 473.53 144.69C480.182 144.69 485.596 150.108 485.596 156.765ZM461.463 156.765C461.463 154.392 462.156 152.166 463.352 150.297L479.993 166.95C478.126 168.147 475.901 168.84 473.53 168.84C466.877 168.84 461.463 163.422 461.463 156.765Z" fill="#F15A23"/>
<path d="M217.759 88.4097L226.804 79.3587C228.105 78.0567 228.105 75.9777 226.804 74.6757C225.503 73.3737 223.425 73.3737 222.124 74.6757L213.079 83.7267L204.034 74.6757C202.733 73.3737 200.656 73.3737 199.355 74.6757C198.054 75.9777 198.054 78.0567 199.355 79.3587L208.399 88.4097L199.355 97.4607C198.054 98.7627 198.054 100.842 199.355 102.144C200.005 102.795 200.845 103.11 201.684 103.11C202.524 103.11 203.384 102.795 204.014 102.144L213.058 93.0927L222.103 102.144C222.754 102.795 223.593 103.11 224.432 103.11C225.272 103.11 226.132 102.795 226.762 102.144C228.063 100.842 228.063 98.7627 226.762 97.4607L217.717 88.4097H217.759Z" fill="#F15A23"/>
<path d="M440.792 235.389C432.209 242.823 419.387 245.175 409.881 237.93C407.048 235.851 404.194 232.512 402.2 229.026L404.53 225.246C423.081 236.691 430.405 217.161 445.493 215.628L442.471 220.038C442.471 220.038 441.044 235.074 440.792 235.389Z" fill="#21ABA1"/>
<path d="M457.874 365.799L458.147 365.652C458.147 365.841 458.399 366.534 458.588 366.534L466.961 366.702C467.15 366.702 467.276 366.324 467.276 366.135L467.989 365.925C467.989 364.665 467.885 364.224 467.339 363.237C465.303 360.528 467.738 348.432 467.654 345.261C468.157 344.4 458.84 345.072 458.714 344.862C458.504 344.862 458.336 345.051 458.357 345.24L459.448 359.058C459.931 361.683 457.916 363.279 457.854 365.736L457.874 365.799Z" fill="#F99370"/>
<path d="M421.612 367.017H438.274C439.722 366.954 439.722 365.463 439.449 364.329C438.526 360.171 440.163 350.658 440.457 346.374C440.541 345.597 439.932 344.904 439.135 344.904H431.769C430.971 344.904 430.363 345.597 430.447 346.395L431.79 357.063C432.524 361.704 426.984 362.586 423.836 363.09C421.759 363.237 418.296 366.072 421.591 366.996L421.612 367.017Z" fill="#F99370"/>
<path d="M440.079 365.274C440.037 366.093 439.638 367.017 438.673 366.996H421.381C417.31 365.484 423.164 360.066 431.139 360.108C434.392 360.99 439.155 360.36 439.155 360.36C439.155 360.36 440.142 361.83 440.058 365.274H440.079Z" fill="#103663"/>
<path d="M466.689 367.017H459.302C455.692 366.534 458.273 360.15 462.995 360.108C467.738 360.066 470.298 366.534 466.689 367.017Z" fill="#103663"/>
<path d="M425.515 364.665C425.767 364.665 425.956 364.392 425.851 364.161C425.053 362.208 423.584 361.62 423.521 361.599C423.081 361.41 422.808 362.103 423.248 362.292C423.311 362.313 424.508 362.817 425.158 364.455C425.221 364.602 425.347 364.686 425.494 364.686L425.515 364.665Z" fill="#E8C0A6"/>
<path d="M428.369 364.329C428.621 364.329 428.789 364.077 428.726 363.846C428.075 361.389 424.906 359.562 425.767 361.284C425.788 361.284 427.445 362.187 428.033 364.077C428.075 364.245 428.222 364.329 428.39 364.329H428.369Z" fill="#E8C0A6"/>
<path d="M431.622 363.93C431.874 363.93 432.063 363.678 431.979 363.447C431.223 361.011 428.348 358.827 428.999 360.633C428.999 360.633 430.594 361.725 431.286 363.699C431.349 363.846 431.475 363.951 431.643 363.951L431.622 363.93Z" fill="#E8C0A6"/>
<path d="M465.639 362.313C465.996 362.313 466.143 361.809 465.828 361.62C463.352 360.171 460.246 361.536 460.12 361.62C459.679 361.809 459.994 362.502 460.414 362.292C460.435 362.208 463.561 361.074 465.618 362.334L465.639 362.313Z" fill="#E8C0A6"/>
<path d="M420.185 365.274H440.079C440.016 365.883 439.848 366.471 439.533 366.996H421.402C420.499 366.996 419.87 366.093 420.185 365.274Z" fill="#0F2E54"/>
<path d="M466.689 367.017H459.302C458.357 367.017 457.602 366.219 457.665 365.295H468.325C468.388 366.24 467.633 367.017 466.689 367.017Z" fill="#0F2E54"/>
<path d="M443.185 196.602C443.185 196.602 443.101 191.205 447.99 190.239L450.551 192.906L443.185 196.623V196.602Z" fill="#8C4225"/>
<path d="M468.85 357.588C468.85 357.588 460.959 359.499 456.909 357.441C454.79 344.19 448.935 307.251 446.878 281.946C446.794 283.416 442.513 342.93 441.695 357.441C438.883 358.386 433.258 359.52 430.111 357.231C428.684 341.964 424.151 291.669 430.992 250.593C430.992 250.593 449.774 252.693 464.443 248.241C468.472 261.261 469.542 341.943 468.85 357.567V357.588Z" fill="#1D3F70"/>
<path d="M433.133 355.971C431.202 312.081 435.63 274.323 434.958 273.861C433.804 273.945 429.355 312.039 433.133 355.971Z" fill="#163356"/>
<path d="M462.638 355.971C461.883 310.863 455.167 268.128 454.16 267.981C453.405 268.548 459.994 310.779 462.638 355.971Z" fill="#163356"/>
<path d="M445.367 215.481C444.948 211.911 445.514 206.745 446.018 204.624C446.92 200.445 453.552 202.062 452.439 206.178C452.23 206.052 451.537 213.633 452.02 215.733C458.252 217.602 439.512 223.755 445.367 215.481Z" fill="#F99370"/>
<path d="M452.503 205.821C452.503 205.926 452.461 206.052 452.44 206.157C452.293 206.052 451.852 210.231 451.852 213.276C448.998 214.578 445.808 214.011 445.242 213.885C445.179 210.042 445.535 206.535 446.102 204.33C447.256 200.613 453.111 201.957 452.524 205.821H452.503Z" fill="#E57D61"/>
<path d="M456.93 204.267C455.986 207.123 454.454 210.273 451.831 211.848C450.761 212.478 449.543 212.793 448.305 212.835C441.275 213.78 434.35 204.204 440.688 199.458C441.737 198.723 442.639 197.631 443.206 196.623C448.83 185.745 460.393 194.292 456.951 204.288L456.93 204.267Z" fill="#F99370"/>
<path d="M433.175 230.601L430.279 241.227C424.088 243.138 417.478 242.697 411.644 239.127C418.044 242.739 426.858 240.702 428.243 238.581C429.712 236.334 432.965 230.937 433.175 230.622V230.601Z" fill="#017A71"/>
<path d="M467.171 265.986C466.5 266.805 465.786 267.624 465.031 268.443C465.031 268.443 461.337 269.136 458.441 265.293C470.235 240.303 447.466 237.972 452.02 215.733C467.213 217.539 488.366 240.24 467.171 265.986Z" fill="#21ABA1"/>
<path d="M446.018 200.655C445.829 200.109 446.71 199.815 446.878 200.382C447.067 200.928 446.185 201.222 446.018 200.655Z" fill="#C16256"/>
<path d="M442.387 199.416C442.198 198.87 443.08 198.576 443.248 199.143C443.436 199.689 442.555 199.983 442.387 199.416Z" fill="#C16256"/>
<path d="M456.93 204.267C455.986 207.123 454.454 210.273 451.831 211.848C451.621 211.974 451.39 212.1 451.159 212.184C453.195 210.714 454.832 207.123 454.832 207.123L454.936 203.868C452.544 200.529 454.307 197.463 454.307 197.463C449.333 198.03 448.2 194.838 448.2 194.838C446.668 194.796 445.199 193.725 445.199 193.725C452.04 186.858 459.931 196.707 456.951 204.246L456.93 204.267Z" fill="#E57D61"/>
<path d="M443.479 203.532C443.772 203.616 444.024 203.217 443.646 203.175C443.038 203.28 441.737 202.671 442.471 202.377C443.5 202.02 445.115 199.647 444.171 200.067C444.171 200.067 443.269 201.726 442.345 202.041C441.086 202.671 442.618 203.511 443.479 203.511V203.532Z" fill="#C16256"/>
<path d="M467.171 265.986C466.5 266.805 465.786 267.624 465.031 268.443C465.031 268.443 461.274 268.968 458.378 265.125C458.798 264.096 459.281 263.424 459.638 262.395C459.638 262.395 461.862 264.894 467.171 265.986Z" fill="#017A71"/>
<path d="M465.283 268.926C466.08 269.157 466.92 268.212 465.828 267.939C459.973 268.191 458.42 264.327 458.357 264.159C455.818 262.731 458.945 269.262 465.283 268.905V268.926Z" fill="#163356"/>
<path d="M428.243 268.254C428.243 268.254 429.397 273.189 438.568 275.604C441.191 276.297 442.723 275.961 443.101 274.134C443.29 273.21 443.793 271.614 444.717 271.026C444.717 271.026 446.773 271.908 447.55 273.168C449.25 275.919 451.81 273.42 453.048 270.522C454.58 266.952 459.532 263.298 460.393 260.295L428.243 268.233V268.254Z" fill="#F4D4BE"/>
<path d="M465.66 262.164C465.366 262.689 465.177 262.605 464.884 262.311C456.636 256.158 453.677 269.619 444.801 269.85C435.756 270.753 430.719 271.257 428.264 268.254C423.962 261.576 430.803 231.756 436.343 224.532C438.778 220.773 443.059 217.434 445.388 215.481C445.346 215.67 444.108 220.815 452.04 215.733C452.439 215.901 454.957 218.358 454.79 219.681C455.188 225.729 469.5 255.402 465.681 262.185L465.66 262.164Z" fill="#21ABA1"/>
<path d="M442.765 188.895C442.765 188.895 445.095 188.244 447.487 189.189C447.76 188.286 448.326 187.446 449.229 186.795C449.627 187.887 450.173 188.958 450.803 189.945C451.012 187.866 452.293 186.207 452.293 186.207C452.628 188.181 455.377 189.609 456.657 191.751C456.657 191.751 463.96 194.25 458.756 200.676C458.546 203.049 457.392 205.443 457.392 205.443C453.552 201.936 454.391 197.736 456.133 196.644C453.006 197.757 450.236 196.434 448.662 194.355C446.333 193.977 443.5 192.696 442.807 188.916L442.765 188.895Z" fill="#8C4225"/>
<path d="M460.876 264.054L459.071 263.676C466.29 247.401 457.791 240.513 453.3 231.336C463.73 243.411 465.303 250.026 460.876 264.054Z" fill="#017A71"/>
<path d="M458.567 206.052C457.371 209.265 453.342 207.711 454.601 204.519C455.797 201.306 459.826 202.86 458.567 206.052Z" fill="#F99370"/>
<path d="M457.413 206.577C458.147 205.8 458.147 204.498 457.812 204.141C457.203 203.511 456.028 203.595 456.028 203.952C456.175 204.33 456.972 203.721 457.539 204.351C458.147 204.834 456.93 206.367 457.413 206.577Z" fill="#C16256"/>
<path d="M455.881 206.073C456.133 206.073 456.573 204.876 457.853 204.96C457.937 204.96 458.021 204.897 458.042 204.813C457.203 203.973 455.125 206.115 455.881 206.094V206.073Z" fill="#C16256"/>
<path d="M454.454 216.174C454.496 219.198 446.731 221.886 446.291 221.886L445.367 219.135C444.171 219.429 443.122 221.109 443.122 221.109C439.68 217.833 442.912 214.956 445.367 215.502C445.325 215.691 444.78 220.185 451.999 215.586C452.922 215.166 454.475 216.174 454.475 216.174H454.454Z" fill="#F4D4BE"/>
<path d="M441.695 357.441C441.695 357.441 440.666 357.819 439.26 358.092C439.26 358.092 443.227 299.04 443.814 291.165C444.402 283.29 446.878 281.967 446.878 281.967C446.878 281.967 441.632 356.181 441.695 357.462V357.441Z" fill="#163356"/>
<path d="M441.842 354.564C441.737 356.265 441.674 357.294 441.695 357.42C438.883 358.365 433.259 359.499 430.111 357.21C430.111 357.21 430.027 356.265 429.859 354.543C429.859 354.543 435.357 357.084 441.863 354.543L441.842 354.564Z" fill="#163356"/>
<path d="M468.85 357.588C468.85 357.588 460.96 359.499 456.909 357.441C456.909 357.441 456.742 356.412 456.448 354.585C456.448 354.585 462.009 356.055 468.955 354.501C468.976 356.286 468.829 357.441 468.85 357.588Z" fill="#163356"/>
<path d="M406.586 226.401C406.586 228.816 403.291 230.769 403.291 230.769C402.914 230.202 402.557 229.614 402.2 229.026L404.53 225.246C405.243 225.645 405.915 226.086 406.586 226.401Z" fill="#017A71"/>
<path d="M401.109 218.421C400.207 219.009 401.697 220.794 401.571 221.76C400.081 221.067 398.759 219.954 398.759 219.954C397.478 218.379 396.282 216.72 395.149 215.019C392.379 213.759 396.765 220.017 397.101 220.794C397.101 220.794 397.101 220.794 397.08 220.815C395.422 219.471 393.827 218.043 392.358 216.468C389.252 215.817 395.527 221.55 396.093 222.243C394.31 221.235 392.652 220.038 391.162 218.652C387.972 218.274 394.792 223.608 395.548 224.091C395.548 224.091 395.548 224.091 395.548 224.112C394.205 223.923 391.414 221.424 390.511 222.033C389.672 223.398 398.801 228.333 402.011 228.942C403.166 229.257 404.823 226.359 404.551 225.225C404.278 224.154 403.543 222.852 403.291 222.369C402.893 221.256 402.452 218.505 401.13 218.4L401.109 218.421Z" fill="#F99370"/>
<path d="M409.86 237.909C409.965 237.972 410.049 238.056 410.154 238.14C410.049 238.056 409.965 237.993 409.881 237.93C409.881 237.909 409.881 237.909 409.881 237.909H409.86Z" fill="#395B96"/>
<path d="M448.62 199.92C448.641 199.92 448.662 199.92 448.683 199.878C448.767 199.794 448.788 199.668 448.725 199.563C448.683 199.521 447.781 198.387 446.228 198.45C446.102 198.45 446.018 198.555 446.018 198.681C446.018 198.807 446.123 198.891 446.249 198.891C447.55 198.849 448.368 199.836 448.389 199.836C448.452 199.899 448.536 199.941 448.62 199.899V199.92Z" fill="#C16256"/>
<path d="M442.723 197.946C442.765 197.946 442.807 197.946 442.828 197.925C443.52 197.589 444.297 198.051 444.297 198.051C444.402 198.114 444.528 198.093 444.591 197.988C444.654 197.883 444.633 197.757 444.528 197.694C444.486 197.673 443.541 197.085 442.639 197.547C442.534 197.61 442.492 197.736 442.534 197.841C442.576 197.904 442.639 197.946 442.702 197.967L442.723 197.946Z" fill="#C16256"/>
<path d="M444.78 204.372C444.738 204.372 444.696 204.393 444.675 204.414C444.108 204.918 443.227 204.687 443.227 204.687C443.122 204.645 442.996 204.729 442.954 204.834C442.912 204.939 442.975 205.065 443.101 205.107C443.143 205.107 444.213 205.422 444.968 204.75C445.052 204.666 445.073 204.54 444.968 204.435C444.906 204.372 444.843 204.351 444.759 204.372H444.78Z" fill="#C16256"/>
<path d="M180.447 221.991C183.217 204.12 193.521 208.32 193.521 208.32C193.521 208.32 199.187 205.38 203.888 212.541C211.317 223.923 220.005 221.067 222.04 231.336C224.034 241.374 210.372 252.798 194.109 245.364C194.109 245.364 177.656 239.967 180.447 221.97V221.991Z" fill="#662948"/>
<path d="M234.233 251.349C234.925 251.958 233.268 253.365 233.184 254.205C234.632 253.89 235.996 253.155 236.017 253.155C237.444 252 238.829 250.782 240.13 249.501C242.837 248.829 237.716 253.638 237.297 254.205C237.297 254.205 237.297 254.205 237.297 254.226C239.018 253.365 240.696 252.42 242.27 251.328C245.208 251.265 238.472 255.234 237.884 255.675C239.647 255.15 241.326 254.394 242.921 253.47C245.88 253.659 238.724 257.187 238.01 257.397C238.01 257.397 238.01 257.397 238.01 257.418C239.458 257.208 240.864 256.788 242.228 256.326C244.956 256.893 238.325 259.056 237.674 259.203C237.255 259.518 234.674 260.253 231.4 260.421C230.33 260.484 229.427 257.607 229.889 256.662C230.33 255.78 231.232 254.772 231.547 254.394C232.05 253.575 233.142 251.055 234.212 251.328L234.233 251.349Z" fill="#F99370"/>
<path d="M192.283 242.843C194.948 244.817 196.375 247.82 198.453 250.592C200.887 254.036 203.678 257.69 207.245 260.126C214.821 265.04 224.286 263.108 232.281 260.483C235.177 259.58 233.876 255.044 230.938 255.821C224.118 257.375 214.968 258.761 210.12 252.545C205.462 247.148 204.014 239.588 198.767 234.527C193.08 229.298 185.819 238.517 192.283 242.822V242.843Z" fill="#F99370"/>
<path d="M195.703 252.357C196.564 254.751 197.718 256.62 199.019 258.09C201.453 260.862 204.349 262.101 206.532 262.521C206.616 262.521 206.679 262.542 206.742 262.563C210.057 263.13 217.151 254.961 213.31 252.147C209.47 249.333 210.141 247.632 205.546 240.891C200.971 234.129 197.109 232.911 197.109 232.911C197.172 238.14 193.143 245.28 195.682 252.378L195.703 252.357Z" fill="#21ABA1"/>
<path d="M134.237 340.536L131.74 325.122C132.516 324.723 136.357 324.87 137.721 324.513C138.581 324.429 149.409 321.405 150.543 321.132L151.97 329.994L140.344 330.414C138.959 330.456 137.826 331.485 137.616 332.85C136.986 335.874 138.056 339.024 136.105 341.208C135.433 341.796 134.384 341.418 134.237 340.536Z" fill="#F99370"/>
<path d="M133.146 324.408C132.642 324.555 132.159 324.786 131.74 325.122L134.258 340.662C134.384 341.418 135.223 341.838 135.895 341.481C137.469 340.62 139.546 338.184 138.77 330.939C138.77 330.939 137.658 328.608 137.721 324.492C137.721 324.492 135.223 323.799 133.146 324.387V324.408Z" fill="#1D3F70"/>
<path d="M138.329 338.582C137.763 338.414 137.826 337.553 135.937 337.091C135.769 337.049 135.664 336.881 135.706 336.713C136.399 335.726 139.714 338.519 138.329 338.582Z" fill="#E8C0A6"/>
<path d="M138.833 336.272C138.728 336.272 138.644 336.23 138.581 336.146C138.581 336.146 137.574 334.844 135.874 334.592C135.454 334.55 135.559 333.899 135.958 333.962C137.931 334.235 139.043 335.705 139.085 335.768C139.253 335.978 139.085 336.293 138.833 336.272Z" fill="#E8C0A6"/>
<path d="M138.917 333.375C138.476 333.291 137.846 332.136 135.748 331.737C135.349 331.674 135.454 331.023 135.853 331.107C137.951 331.569 139.966 333.018 138.917 333.375Z" fill="#E8C0A6"/>
<path d="M135.916 341.481L133.146 324.429C132.642 324.576 132.159 324.807 131.74 325.143L134.258 340.683C134.384 341.46 135.244 341.88 135.916 341.481Z" fill="#395B96"/>
<path d="M199.019 258.09C201.453 260.862 204.349 262.101 206.532 262.521C205.168 259.728 207.056 258.51 207.413 253.911C207.791 249.102 203.594 244.104 203.594 244.104L199.019 258.09Z" fill="#017A71"/>
<path d="M203.048 366.764L187.456 366.596C187.204 365.756 188.002 361.997 187.876 360.611C187.876 360.023 187.729 356.81 187.666 356.222L188.841 347.423L195.725 347.507L194.151 359.036C193.962 360.401 194.78 361.703 196.081 362.144C198.956 363.278 202.209 362.774 204.056 365.042C204.538 365.798 203.972 366.785 203.069 366.785L203.048 366.764Z" fill="#F99370"/>
<path d="M186.995 365.085C187.058 365.61 187.184 366.135 187.457 366.597L203.196 366.765C203.951 366.765 204.518 366.03 204.287 365.295C203.699 363.594 201.664 361.116 194.403 360.675C194.403 360.675 191.926 361.389 187.876 360.612C187.876 360.612 186.764 362.964 186.995 365.106V365.085Z" fill="#1D3F70"/>
<path d="M199.649 364.707C199.418 364.707 199.271 364.476 199.355 364.266C200.068 362.586 201.349 362.082 201.391 362.061C201.768 361.914 201.999 362.523 201.621 362.649C201.579 362.649 200.53 363.09 199.943 364.518C199.901 364.644 199.775 364.707 199.649 364.707Z" fill="#E8C0A6"/>
<path d="M197.173 364.371C196.963 364.371 196.795 364.161 196.879 363.951C197.467 361.83 200.237 360.276 199.481 361.746C199.481 361.746 198.012 362.502 197.488 364.14C197.446 364.266 197.32 364.371 197.194 364.371H197.173Z" fill="#E8C0A6"/>
<path d="M194.36 363.992C194.15 363.992 193.983 363.761 194.067 363.572C194.759 361.661 196.27 360.653 196.333 360.611C196.669 360.38 197.025 360.926 196.69 361.157C196.69 361.157 195.284 362.081 194.675 363.782C194.633 363.908 194.507 363.992 194.381 363.992H194.36Z" fill="#E8C0A6"/>
<path d="M204.266 365.273L186.995 365.084C187.058 365.609 187.184 366.134 187.456 366.596L203.195 366.764C203.972 366.764 204.538 366.008 204.266 365.273Z" fill="#395B96"/>
<path d="M140.26 323.064C140.26 323.064 140.26 327.453 141.456 331.653C171.403 329.154 183.826 325.248 186.155 296.184C186.155 296.184 196.375 315.756 186.617 352.989C186.344 354.081 186.05 355.152 185.736 356.244C185.736 356.244 189.576 359.394 194.885 358.365C201.496 345.765 216.123 315.462 203.489 275.814C195.977 267.12 180.846 266.217 171.235 270.585C163.512 290.493 177.069 314.958 140.26 323.043V323.064Z" fill="#3A72AA"/>
<path d="M140.26 323.064C140.26 323.064 140.26 327.453 141.456 331.653C141.456 331.653 142.799 331.569 144.982 331.338C143.618 327.978 143.66 322.245 143.66 322.245C142.59 322.56 141.435 322.791 140.26 323.064Z" fill="#23659B"/>
<path d="M185.735 356.244C185.735 356.244 189.576 359.394 194.885 358.365C194.885 358.365 195.389 357.399 196.312 355.593C196.312 355.593 190.037 356.181 186.617 352.989C186.344 354.06 186.05 355.152 185.735 356.244Z" fill="#23659B"/>
<path d="M186.617 352.989C186.512 353.367 186.428 353.745 186.323 354.123H188.233C194.885 334.194 196.039 301.35 186.176 296.184C186.176 296.184 196.396 315.756 186.638 352.989H186.617Z" fill="#23659B"/>
<path d="M193.206 357.399C198.453 345.45 201.936 333.795 203.594 322.728C204.916 313.866 205.063 305.361 204.056 297.465C202.314 283.962 197.781 276.99 197.592 276.696L196.333 277.536C196.375 277.599 200.887 284.592 202.587 297.78C204.14 309.96 203.552 330.099 191.842 356.811L193.227 357.42L193.206 357.399Z" fill="#23659B"/>
<path d="M142.694 330.581C153.376 329.552 161.371 327.704 167.1 324.953C172.787 322.202 176.649 318.38 178.915 313.235C184.56 300.341 182.483 274.511 182.399 273.419L180.888 273.545C180.909 273.818 183.028 300.11 177.53 312.626C173.291 322.328 163.155 327.095 142.568 329.069L142.715 330.581H142.694Z" fill="#23659B"/>
<path d="M170.731 272.033C177.425 275.204 192.996 281.861 203.762 276.632C204.35 275.372 204.455 273.44 203.993 272.033C199.817 257.69 210.981 255.821 203.384 243.788C201.684 241.121 198.474 235.388 197.131 232.91C195.871 235.934 192.178 233.078 190.688 231.335C189.597 231.377 177.677 232.385 172.913 257.858C172.431 260.441 165.841 268.043 170.731 272.033Z" fill="#21ABA1"/>
<path d="M193.353 267.288C193.5 268.191 191.318 268.212 190.709 268.8C192.031 269.493 193.542 269.808 193.542 269.808C195.368 269.85 197.215 269.808 199.04 269.64C201.558 270.858 194.528 271.278 193.857 271.425C193.857 271.425 193.857 271.425 193.857 271.446C195.725 271.887 197.634 272.223 199.544 272.412C201.831 274.239 194.109 272.979 193.395 272.937C195.074 273.651 196.858 274.155 198.662 274.47C200.824 276.507 193.059 274.617 192.388 274.344C193.626 275.1 194.969 275.688 196.333 276.213C198.054 278.397 191.59 275.814 191.003 275.499C190.478 275.499 188.023 274.386 185.4 272.412C184.539 271.761 185.693 268.989 186.659 268.548C187.561 268.149 188.904 267.96 189.387 267.876C190.289 267.561 192.745 266.343 193.395 267.246L193.353 267.288Z" fill="#F99370"/>
<path d="M181.895 233.099C175.495 237.908 168.905 245.321 166.576 252.986C162.861 263.591 176.166 269.807 184.728 272.327C186.407 272.957 188.359 273.314 189.051 271.193C189.534 269.24 187.939 268.484 186.428 267.896C183.616 266.594 180.741 264.935 178.412 262.982C175.683 260.756 173.501 257.69 175.621 254.456C178.16 249.269 182.504 244.817 187.414 241.961C193.185 238.328 187.687 229.529 181.895 233.12V233.099Z" fill="#F99370"/>
<path d="M190.625 231.335C190.625 231.335 181.056 229.571 174.047 238.265C167.037 246.959 161.287 257.963 165.946 260.861C168.611 262.52 168.905 258.152 175.474 259.454C180.594 260.462 179.608 250.907 187.309 242.927C191.548 238.538 191.695 232.931 190.625 231.356V231.335Z" fill="#21ABA1"/>
<path d="M176.04 259.937C176.859 259.937 179.65 259.517 181.497 254.015C183.511 248.051 187.016 243.851 187.058 243.809C187.205 243.62 187.184 243.347 187.016 243.2C186.827 243.053 186.554 243.074 186.407 243.242C186.26 243.41 182.756 247.589 180.678 253.721C178.789 259.349 175.956 259.055 175.935 259.055C175.705 259.034 175.474 259.181 175.453 259.433C175.411 259.664 175.579 259.895 175.809 259.916C175.809 259.916 175.914 259.916 176.04 259.916V259.937Z" fill="#017A71"/>
<path d="M197.11 232.638C197.11 232.638 198.956 233.31 199.754 234.444C199.754 234.444 199.523 236.061 198.327 236.649C196.984 237.321 195.62 234.843 195.62 234.843C195.62 234.843 195.326 236.985 193.668 236.838C192.01 236.691 188.841 234.255 187.855 231.189C187.855 231.189 189.87 230.832 190.646 231.315L197.131 232.617L197.11 232.638Z" fill="#FFD2D2"/>
<path d="M197.361 230.811L197.11 232.638C196.459 235.515 191.464 232.743 190.688 231.336C190.688 231.336 190.919 230.286 191.003 229.341L197.361 230.811Z" fill="#F99370"/>
<path d="M191.171 222.62C191.171 222.725 191.171 222.851 191.192 222.956C191.36 222.872 191.297 226.988 190.94 229.949C193.563 231.545 196.711 231.356 197.299 231.314C197.802 227.576 197.865 224.132 197.571 221.927C196.879 218.168 191.045 218.819 191.171 222.62Z" fill="#E57D61"/>
<path d="M186.911 220.374C187.414 223.272 188.443 226.548 190.772 228.438C191.716 229.194 192.85 229.677 194.046 229.887C200.803 231.735 208.736 223.608 203.321 218.001C201.37 216.258 200.908 213.108 199.355 211.344C197.068 208.131 192.178 208.383 189.576 211.05C187.225 213.465 186.449 216.783 186.911 220.353V220.374Z" fill="#F99370"/>
<path d="M197.991 218.421C198.243 217.917 197.445 217.518 197.194 218.043C196.942 218.547 197.739 218.946 197.991 218.421Z" fill="#C16256"/>
<path d="M201.684 217.727C201.936 217.223 201.139 216.824 200.887 217.349C200.635 217.853 201.433 218.252 201.684 217.727Z" fill="#C16256"/>
<path d="M200.593 221.57C200.321 221.57 199.733 221.696 199.733 221.318C199.754 221.234 199.859 221.171 199.943 221.213C200.509 221.381 201.286 221.087 201.391 220.835C201.433 220.751 201.307 220.667 201.202 220.604C200.258 220.142 199.019 217.538 199.88 218.147C199.88 218.147 200.53 219.89 201.37 220.31C202.314 220.94 201.349 221.465 200.593 221.57Z" fill="#C16256"/>
<path d="M186.91 220.374C187.414 223.272 188.442 226.548 190.772 228.438C189.47 226.884 188.631 223.356 188.631 223.356L189.219 221.781C199.271 218.379 198.284 210.252 198.284 210.252C192.094 205.338 185.483 213.759 186.91 220.395V220.374Z" fill="#E57D61"/>
<path d="M197.298 209.454C197.298 209.454 198.137 217.518 189.135 220.941L185.861 219.198C182.608 213.024 188.295 203.763 197.277 209.454H197.298Z" fill="#662948"/>
<path d="M186.638 207.228C188.841 214.809 197.676 212.394 195.703 204.75C193.5 197.169 184.665 199.584 186.638 207.228Z" fill="#662948"/>
<path d="M185.085 221.864C185.798 225.14 189.912 224.216 189.135 220.94C188.422 217.664 184.308 218.588 185.085 221.864Z" fill="#F99370"/>
<path d="M186.176 222.537C185.484 221.823 185.735 220.374 186.092 220.122C186.743 219.597 187.918 219.849 187.834 220.185C187.624 220.521 186.953 219.828 186.323 220.353C185.673 220.857 186.575 222.243 186.176 222.516V222.537Z" fill="#C16256"/>
<path d="M187.729 222.284C187.393 222.284 187.246 221.024 185.945 220.919C185.861 220.919 185.777 220.835 185.777 220.751C186.68 220.037 188.359 222.347 187.729 222.284Z" fill="#C16256"/>
<path d="M186.932 223.145C186.932 223.628 187.687 223.628 187.687 223.145C187.687 222.662 186.932 222.662 186.932 223.145Z" fill="#F4D4BE"/>
<path d="M199.229 223.67C199.02 223.607 198.831 223.481 198.705 223.292C198.411 222.893 198.453 222.368 198.789 222.116C198.957 221.99 199.166 221.969 199.397 222.011C199.607 222.074 199.796 222.2 199.922 222.389C200.216 222.788 200.174 223.313 199.838 223.565C199.733 223.649 199.586 223.691 199.439 223.691C199.292 223.691 199.292 223.691 199.229 223.67ZM198.957 222.389C198.768 222.536 198.768 222.851 198.957 223.103C199.041 223.229 199.166 223.313 199.313 223.355C199.439 223.397 199.544 223.355 199.628 223.313C199.817 223.166 199.817 222.851 199.628 222.599C199.544 222.473 199.418 222.389 199.271 222.347C199.229 222.347 199.187 222.347 199.145 222.347C199.062 222.347 198.999 222.368 198.936 222.41L198.957 222.389Z" fill="#C16256"/>
<path d="M196.165 217.497C196.207 217.497 196.27 217.476 196.291 217.434C196.879 216.594 198.033 216.594 198.033 216.594C198.117 216.594 198.201 216.531 198.201 216.426C198.201 216.342 198.138 216.258 198.033 216.258C197.949 216.258 196.711 216.258 196.018 217.245C195.976 217.308 195.976 217.413 196.06 217.476C196.081 217.476 196.123 217.497 196.144 217.497H196.165Z" fill="#C16256"/>
<path d="M199.649 216.341C199.67 216.341 199.691 216.341 199.712 216.341C200.719 215.858 201.516 216.341 201.516 216.341C201.6 216.383 201.684 216.362 201.747 216.278C201.789 216.194 201.768 216.11 201.684 216.047C201.642 216.026 200.74 215.48 199.565 216.047C199.481 216.089 199.439 216.173 199.481 216.257C199.502 216.32 199.565 216.341 199.628 216.341H199.649Z" fill="#C16256"/>
</svg>
